<svg width="24" height="24" viewBox="0 0 24 24" xmlns="http://www.w3.org/2000/svg">
<path opacity="0.3" fill-rule="evenodd" clip-rule="evenodd" d="M5 13C5 9.14 8.14 6 12 6C15.86 6 19 9.14 19 13C19 16.86 15.86 20 12 20C8.14 20 5 16.86 5 13ZM11 14L15.75 16.85L16.5 15.62L12.5 13.25V8H11V14Z" />
<path d="M12.5 8H11V14L15.75 16.85L16.5 15.62L12.5 13.25V8Z" />
<path d="M16.0564 3.3465L17.3376 1.8107L21.945 5.6543L20.6638 7.1901L16.0564 3.3465Z" />
<path d="M2.05579 5.65366L6.66319 1.81006L7.94439 3.34586L3.33699 7.18946L2.05579 5.65366Z" />
<path fill-rule="evenodd" clip-rule="evenodd" d="M3 13C3 8.03 7.03 4 12 4C16.97 4 21 8.03 21 13C21 17.97 16.97 22 12 22C7.03 22 3 17.97 3 13ZM5 13C5 16.86 8.14 20 12 20C15.86 20 19 16.86 19 13C19 9.14 15.86 6 12 6C8.14 6 5 9.14 5 13Z" />
</svg>
