<svg width="24" height="24" viewBox="0 0 24 24" xmlns="http://www.w3.org/2000/svg">
<path fill-rule="evenodd" clip-rule="evenodd" d="M17 21.95H12C6.48 21.95 2 17.47 2 11.95C2 6.43001 6.48 1.95001 12 1.95001C17.52 1.95001 22 6.43001 22 11.95V13.38C22 15.35 20.47 16.95 18.5 16.95C17.31 16.95 16.19 16.37 15.54 15.48C14.64 16.39 13.38 16.95 12 16.95C9.24 16.95 7 14.71 7 11.95C7 9.19001 9.24 6.95001 12 6.95001C14.76 6.95001 17 9.19001 17 11.95V13.38C17 14.17 17.71 14.95 18.5 14.95C19.29 14.95 20 14.17 20 13.38V11.95C20 7.61001 16.34 3.95001 12 3.95001C7.66 3.95001 4 7.61001 4 11.95C4 16.29 7.66 19.95 12 19.95H17V21.95ZM9 11.95C9 13.61 10.34 14.95 12 14.95C13.66 14.95 15 13.61 15 11.95C15 10.29 13.66 8.95001 12 8.95001C10.34 8.95001 9 10.29 9 11.95Z"/>
</svg>
