<svg width="24" height="24" viewBox="0 0 24 24" xmlns="http://www.w3.org/2000/svg">
<path opacity="0.3" d="M11.9199 8.28C12.1599 6.88 11.7599 5.39 10.6799 4.32C9.73988 3.37 8.47988 2.93 7.23988 3L10.3299 6.09L6.08988 10.33L2.99988 7.24C2.92988 8.48 3.36988 9.73 4.30988 10.68C5.34988 11.72 6.77988 12.13 8.13988 11.93C8.84988 11.83 9.53988 11.55 10.1399 11.11L19.5999 20.57L20.4799 19.69L11.0299 10.24C11.4999 9.64 11.7999 8.98 11.9199 8.28Z"/>
<path fill-rule="evenodd" clip-rule="evenodd" d="M13.54 9.90001L22.61 18.97C23.01 19.36 23.01 20 22.61 20.38L20.31 22.68C19.92 23.07 19.29 23.07 18.9 22.68L9.78996 13.57C7.46996 14.44 4.75996 13.95 2.89996 12.09C0.599961 9.79001 0.389961 6.21001 2.24996 3.67001L6.07996 7.50001L7.49996 6.08001L3.66996 2.25001C6.21996 0.390007 9.79996 0.600007 12.1 2.90001C13.99 4.80001 14.47 7.56001 13.54 9.90001ZM10.15 11.11L19.61 20.57L20.49 19.67L11.04 10.22C11.5 9.63001 11.8 8.97001 11.92 8.27001C12.17 6.88001 11.76 5.39001 10.68 4.31001C9.72996 3.37001 8.47996 2.93001 7.23996 3.00001L10.33 6.09001L6.08996 10.33L2.99996 7.24001C2.92996 8.48001 3.36996 9.74001 4.31996 10.68C5.35996 11.72 6.78996 12.13 8.14996 11.93C8.85996 11.83 9.53996 11.56 10.15 11.11Z"/>
</svg>
