<svg width="24" height="24" viewBox="0 0 24 24" xmlns="http://www.w3.org/2000/svg">
<path opacity="0.3" d="M19 17.41C18.12 17.34 17.25 17.19 16.4 16.96L15.2 18.16C16.41 18.57 17.68 18.83 19 18.92V17.41Z" />
<path opacity="0.3" d="M6.54004 4.95001H5.04004C5.13004 6.27001 5.38004 7.53001 5.79004 8.74001L6.99004 7.53001C6.75004 6.70001 6.60004 5.83001 6.54004 4.95001Z" />
<path fill-rule="evenodd" clip-rule="evenodd" d="M20 20.95C20.55 20.95 21 20.5 21 19.95V16.45C21 15.9 20.55 15.45 20 15.45C18.75 15.45 17.55 15.25 16.43 14.88C16.33 14.85 16.22 14.83 16.12 14.83C15.86 14.83 15.61 14.93 15.41 15.12L13.21 17.32C10.38 15.88 8.06 13.57 6.62 10.73L8.82 8.52001C9.1 8.26001 9.18 7.87001 9.07 7.52001C8.7 6.40001 8.5 5.20001 8.5 3.95001C8.5 3.40001 8.05 2.95001 7.5 2.95001H4C3.45 2.95001 3 3.40001 3 3.95001C3 13.34 10.61 20.95 20 20.95ZM16.4 16.96C17.25 17.2 18.12 17.35 19 17.41V18.91C17.68 18.82 16.4 18.56 15.2 18.15L16.4 16.96ZM6.98 7.53001C6.75 6.70001 6.6 5.83001 6.53 4.95001H5.03C5.12 6.27001 5.38 7.53001 5.78 8.74001L6.98 7.53001Z" />
<path d="M16 10.95H18V7.95001H21V5.95001H18V2.95001H16V5.95001H13V7.95001H16V10.95Z" />
</svg>
