<svg width="24" height="24" viewBox="0 0 24 24" xmlns="http://www.w3.org/2000/svg">
<path opacity="0.3" fill-rule="evenodd" clip-rule="evenodd" d="M9.88 4H14.12L15.95 6H20V18H4V6H8.05L9.88 4ZM7 12C7 14.76 9.24 17 12 17C14.76 17 17 14.76 17 12C17 9.24 14.76 7 12 7C9.24 7 7 9.24 7 12Z" />
<path fill-rule="evenodd" clip-rule="evenodd" d="M16.83 4H20C21.1 4 22 4.9 22 6V18C22 19.1 21.1 20 20 20H4C2.9 20 2 19.1 2 18V6C2 4.9 2.9 4 4 4H7.17L9 2H15L16.83 4ZM4 18H20V6H15.95L14.12 4H9.88L8.05 6H4V18Z" />
<path fill-rule="evenodd" clip-rule="evenodd" d="M7 12C7 9.24 9.24 7 12 7C14.76 7 17 9.24 17 12C17 14.76 14.76 17 12 17C9.24 17 7 14.76 7 12ZM9 12C9 13.65 10.35 15 12 15C13.65 15 15 13.65 15 12C15 10.35 13.65 9 12 9C10.35 9 9 10.35 9 12Z" />
</svg>
