<svg width="24" height="24" viewBox="0 0 24 24" xmlns="http://www.w3.org/2000/svg">
<path opacity="0.3" d="M7 14H17V16H7V14Z" />
<path d="M5 20V22H10V24L13 21L10 18V20H5Z" />
<path d="M14 20H19V22H14V20Z" />
<path d="M11.99 8C13.1 8 14 7.1 14 6C14 4.9 13.1 4 11.99 4C10.88 4 10 4.9 10 6C10 7.1 10.89 8 11.99 8Z" />
<path fill-rule="evenodd" clip-rule="evenodd" d="M17 0H7C5.9 0 5 0.9 5 2V16C5 17.1 5.9 18 7 18H10H17C18.1 18 19 17.1 19 16V2C19 0.9 18.1 0 17 0ZM17 14V16H7V14H17ZM12 10C13.67 10 17 10.83 17 12.5V2H7V12.5C7 10.83 10.33 10 12 10Z" />
</svg>
