<svg width="24" height="24" viewBox="0 0 24 24" xmlns="http://www.w3.org/2000/svg">
<path opacity="0.3" fill-rule="evenodd" clip-rule="evenodd" d="M20 6H4V18H20V6ZM12 7C13.38 7 14.5 8.12 14.5 9.5C14.5 10.88 13.38 12 12 12C10.62 12 9.5 10.88 9.5 9.5C9.5 8.12 10.62 7 12 7ZM7 15.99V17H17V15.99C17 13.9 13.69 13 12 13C10.31 13 7 13.9 7 15.99Z" />
<path fill-rule="evenodd" clip-rule="evenodd" d="M20 20H4C2.9 20 2 19.1 2 18V6C2 4.9 2.9 4 4 4H20C21.1 4 22 4.9 22 6V18C22 19.1 21.1 20 20 20ZM20 6H4V18H20V6Z" />
<path d="M4 0H20V2H4V0Z" />
<path d="M4 22H20V24H4V22Z" />
<path fill-rule="evenodd" clip-rule="evenodd" d="M14.5 9.5C14.5 10.88 13.38 12 12 12C10.62 12 9.5 10.88 9.5 9.5C9.5 8.12 10.62 7 12 7C13.38 7 14.5 8.12 14.5 9.5ZM13 9.5C13 8.95 12.55 8.5 12 8.5C11.45 8.5 11 8.95 11 9.5C11 10.05 11.45 10.5 12 10.5C12.55 10.5 13 10.05 13 9.5Z" />
<path fill-rule="evenodd" clip-rule="evenodd" d="M7 15.99C7 13.9 10.31 13 12 13C13.69 13 17 13.9 17 15.99V17H7V15.99ZM12 14.5C10.84 14.5 9.42 14.98 8.81 15.5H15.2C14.59 14.98 13.17 14.5 12 14.5Z" />
</svg>
