<svg width="24" height="24" viewBox="0 0 24 24" xmlns="http://www.w3.org/2000/svg">
<path opacity="0.3" fill-rule="evenodd" clip-rule="evenodd" d="M8 9H16V19H8V9ZM14.12 17.53L15.53 16.12L13.41 14L15.53 11.88L14.12 10.47L12 12.59L9.87 10.47L8.46 11.88L10.59 14L8.47 16.12L9.88 17.53L12 15.41L14.12 17.53Z"/>
<path d="M14.12 10.47L12 12.59L9.86996 10.47L8.45996 11.88L10.59 14L8.46996 16.12L9.87996 17.53L12 15.41L14.12 17.53L15.53 16.12L13.41 14L15.53 11.88L14.12 10.47Z"/>
<path d="M15.5 4L14.5 3H9.5L8.5 4H5V6H19V4H15.5Z"/>
<path fill-rule="evenodd" clip-rule="evenodd" d="M8 21C6.9 21 6 20.1 6 19V7H18V19C18 20.1 17.1 21 16 21H8ZM16 9H8V19H16V9Z"/>
</svg>
