<svg width="24" height="24" viewBox="0 0 24 24" xmlns="http://www.w3.org/2000/svg">
<path opacity="0.3" d="M9 10C9.82843 10 10.5 9.32843 10.5 8.5C10.5 7.67157 9.82843 7 9 7C8.17157 7 7.5 7.67157 7.5 8.5C7.5 9.32843 8.17157 10 9 10Z" />
<path opacity="0.3" d="M4.34009 17H13.6601C12.8201 16.42 10.7901 15.75 9.00009 15.75C7.21009 15.75 5.18009 16.42 4.34009 17Z" />
<path fill-rule="evenodd" clip-rule="evenodd" d="M12.5 8.5C12.5 10.43 10.93 12 9 12C7.07 12 5.5 10.43 5.5 8.5C5.5 6.57 7.07 5 9 5C10.93 5 12.5 6.57 12.5 8.5ZM10.5 8.5C10.5 7.67 9.83 7 9 7C8.17 7 7.5 7.67 7.5 8.5C7.5 9.33 8.17 10 9 10C9.83 10 10.5 9.33 10.5 8.5Z" />
<path fill-rule="evenodd" clip-rule="evenodd" d="M2 17.25C2 14.92 6.66 13.75 9 13.75C11.34 13.75 16 14.92 16 17.25V19H2V17.25ZM9 15.75C7.21 15.75 5.18 16.42 4.34 17H13.66C12.82 16.42 10.79 15.75 9 15.75Z" />
<path d="M16.04 13.81C17.2 14.65 18 15.77 18 17.25V19H22V17.25C22 15.23 18.5 14.08 16.04 13.81Z" />
<path d="M15 12C16.93 12 18.5 10.43 18.5 8.5C18.5 6.57 16.93 5 15 5C14.46 5 13.96 5.13 13.5 5.35C14.13 6.24 14.5 7.33 14.5 8.5C14.5 9.67 14.13 10.76 13.5 11.65C13.96 11.87 14.46 12 15 12Z" />
</svg>
