<svg width="24" height="24" viewBox="0 0 24 24" xmlns="http://www.w3.org/2000/svg">
<path opacity="0.3" d="M12 14C12.04 14 12.08 13.99 12.12 13.99L9.51 11.38C9.51 11.42 9.5 11.46 9.5 11.5C9.5 12.88 10.62 14 12 14Z"/>
<path opacity="0.3" d="M13.01 9.20996L14.29 10.49C14.03 9.91996 13.58 9.45996 13.01 9.20996Z"/>
<path opacity="0.3" d="M20.82 11.5C19.17 8.13 15.79 6 12 6C11.32 6 10.66 6.09 10.01 6.22L10.93 7.14C11.28 7.05 11.63 7 12 7C14.48 7 16.5 9.02 16.5 11.5C16.5 11.87 16.44 12.22 16.36 12.57L18.41 14.62C19.39 13.76 20.22 12.71 20.82 11.5Z"/>
<path opacity="0.3" d="M11.9999 17C12.9499 17 13.8699 16.87 14.7499 16.61L13.7699 15.63C13.2299 15.87 12.6299 16 11.9999 16C9.51993 16 7.49993 13.98 7.49993 11.5C7.49993 10.87 7.62993 10.27 7.85993 9.72997L6.10993 7.96997C4.88993 8.87997 3.87993 10.07 3.17993 11.49C4.82993 14.86 8.20993 17 11.9999 17Z"/>
<path d="M12.0001 6C15.7901 6 19.1701 8.13 20.8201 11.5C20.2301 12.72 19.4001 13.77 18.4101 14.62L19.8201 16.03C21.2101 14.8 22.3101 13.26 23.0001 11.5C21.2701 7.11 17.0001 4 12.0001 4C10.7301 4 9.51011 4.2 8.36011 4.57L10.0101 6.22C10.6601 6.09 11.3201 6 12.0001 6Z"/>
<path d="M14.2799 10.49L16.3499 12.56C16.4299 12.22 16.4899 11.86 16.4899 11.49C16.4999 9.01 14.4799 7 11.9999 7C11.6299 7 11.2799 7.06 10.9299 7.14L12.9999 9.21C13.5799 9.46 14.0299 9.92 14.2799 10.49Z"/>
<path fill-rule="evenodd" clip-rule="evenodd" d="M2.01 3.86995L4.69 6.54995C3.06 7.82995 1.77 9.52995 1 11.5C2.73 15.89 7 19 12 19C13.52 19 14.98 18.71 16.32 18.18L19.74 21.6L21.15 20.19L3.42 2.44995L2.01 3.86995ZM9.51 11.37L12.12 13.98C12.08 13.99 12.04 14 12 14C10.62 14 9.5 12.88 9.5 11.5C9.5 11.475 9.5025 11.455 9.505 11.435L9.505 11.435L9.505 11.4349C9.5075 11.4149 9.51 11.3949 9.51 11.37ZM7.86 9.71995L6.11 7.96995C4.9 8.88995 3.88 10.07 3.18 11.5C4.83 14.87 8.21 17 12 17C12.95 17 13.87 16.86 14.75 16.62L13.77 15.64C13.23 15.87 12.63 16 12 16C9.52 16 7.5 13.98 7.5 11.5C7.5 10.87 7.63 10.27 7.86 9.71995Z"/>
</svg>
