<svg width="24" height="24" viewBox="0 0 24 24" xmlns="http://www.w3.org/2000/svg">
<path opacity="0.3" d="M12 6.5C9.51 6.5 8 8.52 8 11V17H16V11C16 8.52 14.49 6.5 12 6.5Z" />
<path d="M12 22C13.1 22 14 21.1 14 20H10C10 21.1 10.9 22 12 22Z" />
<path fill-rule="evenodd" clip-rule="evenodd" d="M13.5 4.68C16.37 5.36 18 7.93 18 11V16L20 18V19H4V18L6 16V11C6 7.92 7.64 5.36 10.5 4.68V4C10.5 3.17 11.17 2.5 12 2.5C12.83 2.5 13.5 3.17 13.5 4V4.68ZM8 17H16V11C16 8.52 14.49 6.5 12 6.5C9.51 6.5 8 8.52 8 11V17Z" />
<path d="M7.58003 4.08L6.15003 2.65C3.75003 4.48 2.17003 7.3 2.03003 10.5H4.03003C4.18003 7.85 5.54003 5.53 7.58003 4.08Z" />
<path d="M19.9701 10.5H21.9701C21.8201 7.3 20.2401 4.48 17.8501 2.65L16.4301 4.08C18.4501 5.53 19.8201 7.85 19.9701 10.5Z" />
</svg>
