<svg width="24" height="24" viewBox="0 0 24 24" xmlns="http://www.w3.org/2000/svg">
<path d="M4 6H2V20C2 21.1 2.9 22 4 22H18V20H4V6Z" />
<path opacity="0.3" d="M10 9H11V10H10V9Z" />
<path opacity="0.3" d="M14 9H15V12H14V9Z" />
<path opacity="0.3" fill-rule="evenodd" clip-rule="evenodd" d="M20 16H8V4H20V16ZM18 8H17V13H18V11H19V10H18V9H19V8H18ZM13 8H15C15.55 8 16 8.45 16 9V12C16 12.55 15.55 13 15 13H13V8ZM10 8H9V13H10V11H11C11.55 11 12 10.55 12 10V9C12 8.45 11.55 8 11 8H10Z" />
<path fill-rule="evenodd" clip-rule="evenodd" d="M8 2H20C21.1 2 22 2.9 22 4V16C22 17.1 21.1 18 20 18H8C6.9 18 6 17.1 6 16V4C6 2.9 6.9 2 8 2ZM8 16H20V4H8V16Z" />
<path fill-rule="evenodd" clip-rule="evenodd" d="M16 9V12C16 12.55 15.55 13 15 13H13V8H15C15.55 8 16 8.45 16 9ZM15 9H14V12H15V9Z" />
<path d="M18 11H19V10H18V9H19V8H18H17V13H18V11Z" />
<path fill-rule="evenodd" clip-rule="evenodd" d="M11 11H10V13H9V8H10H11C11.55 8 12 8.45 12 9V10C12 10.55 11.55 11 11 11ZM11 9H10V10H11V9Z" />
</svg>
