<svg width="24" height="24" viewBox="0 0 24 24" xmlns="http://www.w3.org/2000/svg">
<path opacity="0.3" d="M12 10C13.1046 10 14 9.10457 14 8C14 6.89543 13.1046 6 12 6C10.8954 6 10 6.89543 10 8C10 9.10457 10.8954 10 12 10Z" />
<path opacity="0.3" d="M12 15C9.3 15 6.2 16.29 6 17.01V18H18V17C17.8 16.29 14.7 15 12 15Z" />
<path fill-rule="evenodd" clip-rule="evenodd" d="M16 8C16 10.21 14.21 12 12 12C9.79 12 8 10.21 8 8C8 5.79 9.79 4 12 4C14.21 4 16 5.79 16 8ZM14 8C14 6.9 13.1 6 12 6C10.9 6 10 6.9 10 8C10 9.1 10.9 10 12 10C13.1 10 14 9.1 14 8Z" />
<path fill-rule="evenodd" clip-rule="evenodd" d="M4 17C4 14.34 9.33 13 12 13C14.67 13 20 14.34 20 17V20H4V17ZM6 17.01V18H18V17C17.8 16.29 14.7 15 12 15C9.3 15 6.2 16.29 6 17.01Z" />
</svg>
