<svg width="24" height="24" viewBox="0 0 24 24" xmlns="http://www.w3.org/2000/svg">
<path opacity="0.3" d="M15 16C12.31 16 9.23 17.28 9 18H21C20.8 17.29 17.7 16 15 16Z" />
<path opacity="0.3" d="M15 10C16.1046 10 17 9.10457 17 8C17 6.89543 16.1046 6 15 6C13.8954 6 13 6.89543 13 8C13 9.10457 13.8954 10 15 10Z" />
<path fill-rule="evenodd" clip-rule="evenodd" d="M19 8C19 10.21 17.21 12 15 12C12.79 12 11 10.21 11 8C11 5.79 12.79 4 15 4C17.21 4 19 5.79 19 8ZM17 8C17 6.9 16.1 6 15 6C13.9 6 13 6.9 13 8C13 9.1 13.9 10 15 10C16.1 10 17 9.1 17 8Z" />
<path fill-rule="evenodd" clip-rule="evenodd" d="M7 18C7 15.34 12.33 14 15 14C17.67 14 23 15.34 23 18V20H7V18ZM15 16C12.31 16 9.22 17.28 9 18H21C20.8 17.29 17.7 16 15 16Z" />
<path d="M6 15V12H9V10H6V7H4V10H1V12H4V15H6Z" />
</svg>
